<?xml version="1.0" encoding="utf-8"?>
<!-- Generator: Adobe Illustrator 27.9.0, SVG Export Plug-In . SVG Version: 6.00 Build 0)  -->
<svg version="1.1" id="Layer_1" xmlns="http://www.w3.org/2000/svg" xmlns:xlink="http://www.w3.org/1999/xlink" x="0px" y="0px"
	 viewBox="0 0 24 24" style="enable-background:new 0 0 24 24;" xml:space="preserve">

<style type="text/css">
	.st0{fill:#231F20;}
</style>

<path class="st0" d="M4.62,6.17c-0.44,0-0.84-0.29-0.96-0.73L2.74,2H1C0.45,2,0,1.55,0,1s0.45-1,1-1h2.5c0.45,0,0.84,0.3,0.96,0.73
	L5.59,4.9c0.15,0.53-0.17,1.08-0.7,1.23C4.8,6.16,4.71,6.17,4.62,6.17z"/>
<path class="st0" d="M19.06,19.85H5.17c-0.49,0-0.9-0.35-0.99-0.83L1.89,5.92c-0.05-0.3,0.03-0.6,0.23-0.83
	c0.2-0.23,0.45-0.36,0.79-0.34l20.18,0.67c0.31,0.01,0.6,0.17,0.78,0.42c0.18,0.26,0.23,0.58,0.13,0.88l-4,12.44
	C19.87,19.57,19.49,19.85,19.06,19.85z M6.01,17.85h12.32L21.7,7.37L4.07,6.79L6.01,17.85z"/>
<circle class="st0" cx="7.1" cy="22.23" r="1.81"/>
<circle class="st0" cx="16.68" cy="22.23" r="1.81"/>
</svg>
