<?xml version="1.0" encoding="utf-8"?>
<!-- Generator: Adobe Illustrator 28.0.0, SVG Export Plug-In . SVG Version: 6.00 Build 0)  -->
<svg version="1.1" xmlns="http://www.w3.org/2000/svg" xmlns:xlink="http://www.w3.org/1999/xlink" x="0px" y="0px"
	 viewBox="0 0 300 300" style="enable-background:new 0 0 300 300;" xml:space="preserve">
<style type="text/css">
	.st0{fill:#345500;}
	.st1{fill:#FFFFFF;}
</style>
<g id="Layer_1">
	<path class="st0" d="M261.2,266.5c-1.4-4.3-4.2-8-9.3-9.3c-5.3-1.5-10.7-2.3-16.2-2.2c-2.6,0.1-15.1,3.3-22.5,5.5
		c-0.7,0.2-1.5,0.5-2,0.6c-1.9,0.6-3.3,1-3.4,1.1c-1.9,1.3-3.3,1-9.4,1.3c-3.1,0.1-6.3,1.1-9.6-0.3c1.6-2,3.5-2.4,5.6-2.6
		c8.2-1,15.6-4.7,22.9-7.9c6.4-2.7,12.1-7.7,16.3-13.7c1.8-2.5,3.5-6.3,3.3-8.6c-0.6-5.2,0.3-10.9-3.1-15.9c-2.7-4.1-6-7.2-10-9.4
		c-7.2-4-15.2-3.3-23.1-3.6c-8.1-0.2-16.4,0.8-24.3-0.8c-11.6-2.2-23.2-2.2-34.8-2.6c-1.3-0.1-2.5-0.2-3.9-0.5c-6.5-1-15.6,0-19,1.7
		c-1.5,0.7-1.3,3.3-3,4.2c-1.3,0.7-2.4,1.7-3.6,2c-5.5,1.4-11,0-16.6-0.1c-0.8,0-1.9-0.5-2.2-1.8c0.8-1.6,2.2-2.6,3.6-3.8
		c5.5-4,11.6-6.4,17.9-8.5c4.1-1.4,7.5-4,11.7-5.2c7.1-2.2,15.7-5.2,20.9-6.9c2.2-0.7,8.8-2.8,8.8-2.6c0.5,5.5-21,9.2-21,11.6
		c0,6.1,8.4,1.9,14.6,3c5.3,0.9,9.6,0.9,16.7,0c9.3-1.3,22.4,0.5,31.7-0.6c6.4-0.7,12.3-2.8,18.8-4.3c1.8-0.3,11.6-5.8,10-7.4
		c-2.8-2.8-8.2,1.4-16.5,3.9c-6.5,1.9-16.8-2.2-27.2-0.9c-3.9,0.5-7.7,0.1-12.5,0.1c4-2.6,7.2-5.2,10.7-7.1
		c8.5-4.3,22-5.1,26.7-10.5c3.2-3.6,9.3-9,4.9-17.3c-0.9-1.7-7.6-7.6-8.6-5.9c-0.7,1.1,5.5,9.4,4.9,12.5c-0.7,4.9-9.2,8-13.4,10.6
		c-1.4,0.9-6.5,2.3-6.5,1.1c0-0.8,3-2.6,3.9-3.5c0.8-0.7,2.5-1.9,2.7-3c0.1-0.5,0.1-0.9,0-1.6c0-0.2-0.1-0.5-0.1-0.7
		c-0.6-2.5-2.2-5.5-3.4-6.8c-2.8-3.1-10-7.7-15.4-9.3c-11.4-3.3-23.2-1.5-34.9-2.4c-5.3-0.5-10.6-1.5-15.9-1.3
		c-3.4,0.1-6.8-0.7-10.2-0.7c-2.3,0-2.7-1.1-1.8-3.2c0.6-1.1,1.5-1.4,2.4-1.9c11.2-5.6,23.3-8.3,35-11.8c7.4-2.2,7.7-1.1,14.9-3.8
		c1.5-0.5,7.9-3.1,9.9-4c0.8-0.3,3.2-1.1,4.8-1.4c0.2,0,0.5,0,0.6,0c0.7,0,1,0.2,0.3,1c-3.5,1.7-5.3,5.3-10.6,7.1
		c-10.9,3.4-20.7,5.8-30,12.2c-6.9,5.8,8.4,3.8,11.7,4.7c8.3,0.8,25.5-11.6,28-11.9c7.2-0.8,13.8-1.7,19-6.1c5.1-4,4.1-9,4-14.6
		c-0.3-4.3,2.7-3.4,4.6-0.2c-0.1,0,5.7,5.3,2.5,10.1c-2.7,4.3-0.8,3.8-5.3,6.5c-3.9,2.4-4.9,3.1-7.6,5c-4.2,3.2-22.8,3.8-22.8,7.2
		c0,4.1,14.5,3,17.9,2.5c3-0.5,9.7-3.5,11.5-5.3c5.6-5,14.7-9.3,14.3-17.6c-1.4-10.7-5.6-17.5-14.9-22.1c-11.3-5.3-19.9-8.2-32-10.7
		c-4.8-0.9-14.9-1.9-14.9-3.2c0-0.8,1.8-1.6,2.4-2c3.9-2.8,9.8-4,15.5-6.5c1.9-0.8,8.5-4.6,8.2-7.4c-0.3-3-1.3-5.5-4.7-6.6
		c-4.8-1.5-9.8-2.5-14.7-3.3c-4.2-0.6-8.5-1.1-13-2.7c2.7-1.8,5.5-2.3,8.1-3c5.3-1.4,9.6-4.9,14-8.1c4.1-3.1,3.8-8.2-0.5-11
		c-3.2-2.2-6.6-4-10.2-5.2c-4.3-1.5-4.4-1.8-1.8-5.5c0.6-0.8,0.9-1.7,1.7-2.4c2.2-2,1.5-4.1,0.5-6.7c-3,2.2-5.6,4.1-8.2,6
		c-2.3,1.6-3.4,4.1-4.6,6.5c-1.6,3.4,0,6.3,3.5,7.4c3.3,1,6.7,2,10,3.3c1.6,0.6,3.6,1.1,3.6,3.1c0,1.9-2.3,2-3.8,2.5
		c-7.2,2.5-14.5,4.7-21.5,7.4c-2.7,1.1-5.7,2-8.1,4.1c-3,2.5-3.6,7.4-0.9,8.5c2.4,1,4.6,2.7,7.5,2.4c2.2-0.2,4.4,0.1,6.7,0.2
		c4.3,0.2,8.8,1.4,13,0.8c3.9-0.5,7.3-0.2,11.3,1.7c-2.3,1.1-4.1,2.4-6,3c-11.8,3.9-23.2,8.8-35,12.6c-4.3,1.5-8.9,3.3-11.5,7.7
		c-1.5,2.5-1.3,5.1,1.3,6.7c1.5,0.9,3.1,1.4,4.8,1.6c9.2,1.1,18.5,1,27.8,2.3c11.2,1.5,21.7,4.6,30,5.5c4.1,1.4,15.1-2.3,14.9,5.2
		c-2.7,5.9-10.8,3.6-16.3,4.2c-0.2,0-0.5,0-0.6,0.1c-0.7,0.1-1.4,0.2-2,0.3c-9.9,1.4-25.5,4.2-36,7.2c-0.8,0.2-2.7,1-2.6-0.5
		c0.1-2.5,2.8-3.9,3.5-6.3c0.6-1.9,1-3.8-0.6-5.3c-1.7-1.7-3.6-2-5.9-1.3c-10.4,3.6-20.6,7.9-30.3,13.1c-5.8,3.2-11,7.1-15.5,11.8
		c-3.2,3.4-5.5,7.5-4.6,12.2c0.7,3.6,1.7,7.3,3.1,10.7c0.8,2.2,1.7,4.2,2.7,6.1c1.4,2.7,3.5,5.2,5.9,6.7c6.1,3.6,13.2,5.2,20.4,5.2
		c9.7,0,19.3-0.3,29.1-0.7c3-0.1,6.8,0,9.1-0.2c3.2-0.5,9.2-2.4,12.3-3c0.3-0.1,1.1-0.1,1.5-0.2c2.5-0.6,7.9-1.6,9.8-3.2
		c0.9-0.8,2.4-3.1,2-4.2c-0.2-0.9-2.4-1.6-3.3-1.8c-4-1.3-12.4-1.4-16.6-1.6c-3-0.1-9,0.1-11.9-0.2c-2.4-0.2-6.4-1-9.6-1
		c-8.3,0-16.5,0.2-24.8,0c-5.6-0.1-11.2,0.1-16.6-1.4c-1.5-0.3-2.7-0.9-3.1-2.3c-0.1-0.3-0.1-0.7,0-1.1c0.2-2.3,5.1-6.1,7.4-5.8
		c4.7,0.8,9.3,0.9,13.9,1.7c10.8,1.8,21.7,1.5,32.7,2.7c9.6,1.1,20.6,3.2,29.5,6l0,0c4.1,1.3,7.7,2.7,10.6,4.2
		c0.7,0.3,2.3,1.1,2.7,1.9c0.1,0.1,0.1,0.2,0.1,0.3c0,0,0,0,0,0.1c0,1.1-2.3,2.4-3.8,3c-3.9,1.7-8.6,3.8-11.6,4.7
		c-6.1,1.8-18.4,4.3-24.8,5.9c-1.5,0.3-3.2,0.7-5,1c-0.2,0-0.6,0.1-0.8,0.1c-12.3,2-29.5,2.6-43.9,4.7c0,0-18.7,2.6-31.4,9.7
		c-3.1,1.7-5.7,3.5-5.7,3.5c-2.5,1.8-8.1,5.7-11.6,11.2c-1.1,1.7-7.5,11.7-1.9,18.7c2.8,3.5,7.6,4.7,11.8,5.6
		c4.8,1,11.4,1.4,26.3-1.8c2.7-0.6,6.8-1.3,9.4-1.8c14.5-3.8,25.5-7.4,24.9-9c-0.1-0.5-2.4,0-4.4,0c-0.2,0-8.3,0.3-15,1.3
		c-27.9,3.8-34.4,5.7-37.7,2.6c-3.5-3.3,0.9-11.2,4.2-15.4c4-4.9,11.7-11.4,45.7-20.6c14-3.8,24.5-6.4,29.4-7.2
		c0.2,0,0.6-0.1,0.8-0.1c1.5-0.2,2.3-0.2,2.3,0c0,1.1-11.8,4.2-17.2,6.3c-5.7,2.2-15.1,5.8-22.8,8.5c-6.6,2.4-13,5.8-18,11
		c-1.1,1.1-2.6,2.4-3.3,3.9c-0.3,0.9-0.5,1.8-0.1,2.8c1.3,3.3,4.8,4,8,4.8c0.3,0.1,0.9,0,1.3,0.1c5.5,1.5,10.9-0.3,16.4-0.1
		c2.3,0.1,4.6,0.2,6.7,0.2c0.2,0,0.6,0,0.9,0c5.8,0.1,11.6,0.2,17.4,0c7.2-0.3,14.5,0.5,21.7,1.6c11,1.6,22.2,2.7,33.1,5.7
		c3.8,1,7.4,2.2,11,3.3c0.8,0.2,1.6,0.7,1.7,1.7v0.2c0,1.1-0.8,1.5-1.7,1.8c-0.8,0.3-1.6,0.7-2.4,1c-12.7,5.1-26.1,8.4-39.3,11.7
		c-3.8,0.9-7.4,1.7-11.2,2.4c-0.3,0.1-0.7,0.1-1,0.2c-6.8,1.3-13.7,2.4-20.4,4c-13,3.1-26.4,3.8-39,9.2c-8.6,3.8-26.4,11.3-25.1,13
		c0.6,0.8,3.4,0.9,6,0.5c0.3-0.1,0.7-0.1,1-0.2c0.8-0.1,1.6-0.5,2.2-0.7c4-1.8,7.5-3.6,11.2-5.5c11.2-5.5,24.3-6,36.2-9
		c8.1-2,16.3-3.2,24.3-5s16-3,24-5.2c11.3-3.2,22.6-6,33.2-11.6c3-1.6,4.6-4.1,4.4-6.7c0-0.1,0-0.1,0-0.2c-0.1-1.9-1.1-3.9-3.3-5.5
		c-1.6-1.1-3.3-1.9-5.1-2.7c-1-0.5-2.2-0.7-2.7-2.2c0.5-0.2,0.9-0.7,1.1-0.7c7.3,0.9,14.9-0.6,22,2.7c4.2,1.9,5.1,5.3,2,8.6
		c-3.5,3.9-7.4,7.4-12.5,9.2c-2.8,0.9-5.5,2.5-8,4c-7.1,4.2-14.9,6-22.6,7.4c-13.7,2.5-26.9,6.6-40.4,9.4
		c-7.7,1.6-15.6,2.5-23.2,4.4c-11.3,2.6-22.8,4.7-33.7,8.6c-0.7,0.2-4.3,1.1-8.3,2c-0.3,0.1-0.7,0.1-1,0.2c-4.8,1-9.6,2-10.1,2
		c-3.2-0.1-9.8,0.5-12.7-0.7c-0.6-0.2-2.5-1.8-0.7-3.5c2.2-2.3,7.9-5.5,10.7-7.1c6.3-3.1,13.5-6.3,20.3-8.4c2.4-0.9,6.3-2.7,9.4-3.8
		c7.6-2.4,15.4-4.7,23.4-5.3c11.2-1,22.1-4.4,33.5-4.6c1.5,0,2.8-0.1,4.2-0.3c0.3-0.1,0.7-0.1,1-0.2c4.9-1.3,7.6-4.6,7.7-10.2
		c0-7.3-4.9-12.6-12.2-11.6c-3.5,0.5-7.1,1.3-10.5,1.4c-9.2,0.2-18.1,2.3-27,4c-3.4,0.7-6.7,1.5-10.1,2.4c-3.6,1-7.3,2.2-10.9,3.4
		c-13.5,4.6-27,9.4-38.6,18.1c-4.1,3.1-8.4,5.9-11.4,10.4c-1.5,2.2-2.8,4.1-2.2,6.8c1.3,5,1.9,10.1,3.8,14.9
		c1.3,3.3,3.2,5.3,6.8,6.4c3.8,1,7.7,1.4,11.5,2c7.7,1.3,15.6,2.8,23.6,2c1.7-0.1,3.3-0.8,5-0.5c1.6,0.3,3.3,0.5,4.9,0.5
		c0.3,0,0.8,0,1.1,0c2.5,0,4.9-0.3,7.4-0.6c7.4-0.7,14.9-1.5,22.3-1.9c8.1-0.5,16.3-1.1,24.3-1.4c5.6-0.2,11.2,0.1,16.6-0.7
		c9.1-1.3,18.2-0.5,27.3-2.3c5-1,10.4,0.2,15.4-2c0.9-0.5,1.9-0.1,2.8,0.1c5.9,1.6,14.9-2.6,17.6-8.2c1.1-2.4,0.2-3.4-1.9-4.2
		c-1.9-0.8-3.8-0.7-5.6-0.8c-4.7-0.3-10.6,0.2-10.6-0.9c0-0.1,0.8-0.2,1.6-0.2c0.8-0.1,1.8-0.1,2.2,0c5.5,0.5,18.4-1.4,21.7-2.2
		c6.8-1.6,12.4,1.6,18.1,4.1c4,1.7,4.1,4.9,1.1,7.9c-7.1,7.1-16.3,8.6-25.4,10.2c-4.4,0.8-9.1,1.3-13.7,1.6
		c-11.7,0.9-23.2,3.4-35.2,3.1c-10.8-0.3-24.3,1.5-32.4,1.9c-5.9,0.3-17.8,0.2-23.6,0.5c-2.3,0.1-6.9,0.5-9.2,0.5
		c-2.5,0-7.7-0.9-10.2-0.9c-2.6,0-6.6-0.1-10.6,0.1c-0.3,0-0.7,0-1,0c-4,0.2-8,0.7-10.5,1.6c-2.3,0.9-8.6,3.5-7.9,5.9
		c0.5,1.4,4.3,0,5.8,0c5.3-0.1,15.9-0.6,21.3-0.7c6.9,0,20.8,0.8,27.8,0.8c3.6,0,10.9-0.5,14.7-0.7c4.3-0.2,13.1-0.9,17.5-1.4
		c3.9-0.5,11.6-1.6,15.5-2c2.3-0.2,6.9-0.9,9.3-1c4.6-0.1,13.5,0.9,18,0.8c4.8-0.2,14.2-1.6,18.9-2.7c2.2-0.6,5.6-2.2,8.6-1.8
		c3.2,0.5,6.3,1,8.8-1.9c0.5-0.6,1.8-0.8,2.7-0.7c3.5,0.3,6.1-1.5,8.4-3.9c1.7-1.7,3.5-3.3,5.2-5.2
		C260.4,274.1,262.5,270.4,261.2,266.5z"/>
</g>
<g id="Layer_2">
	<path class="st1" d="M173.4,91.4c-14.2-4.6-28.8-5.6-43.2-7.9c0.1-1.7,1.1-2.3,2.2-2.4c4.8-0.8,9.2-2.7,13.7-4.3
		c1.9-0.7,3.8-0.3,4.3,1.5c1.7,7.3,7.7,7.1,13.1,7.9c3,0.5,5.8,1.5,8.6,2.4C172.9,88.8,173.7,89.5,173.4,91.4z"/>
</g>
</svg>
