<?xml version="1.0" encoding="utf-8"?>
<!-- Generator: Adobe Illustrator 28.0.0, SVG Export Plug-In . SVG Version: 6.00 Build 0)  -->
<svg version="1.1" id="Layer_1" xmlns="http://www.w3.org/2000/svg" xmlns:xlink="http://www.w3.org/1999/xlink" x="0px" y="0px"
	 viewBox="0 0 80 40" style="enable-background:new 0 0 80 40;" xml:space="preserve">
<style type="text/css">
	.st0{fill:#231F20;}
	.st1{fill:#FFC2D5;}
	.st2{fill:none;}
</style>
<g>
	<path d="M13.06,5.58c1.85,0,4.01,0.54,6.49,1.61c0.63,0.27,1.03,0.4,1.21,0.4c0.15,0,0.29-0.06,0.41-0.17l0.18-0.17
		c0.11-0.11,0.24-0.17,0.4-0.18c0.33-0.01,0.5,0.19,0.5,0.6l-0.02,1.16l-0.07,2.27l0.05,1.2c0.02,0.3,0.06,0.62,0.1,0.96
		c0.01,0.13,0.02,0.23,0.02,0.3c0,0.35-0.17,0.52-0.51,0.5c-0.23-0.01-0.39-0.24-0.46-0.7c-0.22-1.32-0.92-2.62-2.11-3.89
		C17.59,7.69,15.57,6.8,13.2,6.8c-2.26,0-4.06,0.89-5.42,2.66c-1.35,1.77-2.03,4.14-2.03,7.09c0,3.16,0.7,5.82,2.09,7.98
		c1.4,2.16,3.12,3.24,5.16,3.24c0.61,0,1.38-0.13,2.32-0.41c0.94-0.27,1.65-0.56,2.14-0.88c0.44-0.29,0.75-0.71,0.92-1.26
		s0.26-1.41,0.26-2.56c0-1.32-0.24-2.24-0.71-2.75c-0.48-0.51-1.37-0.8-2.67-0.87c-0.34-0.02-0.51-0.19-0.51-0.49
		c0-0.3,0.2-0.46,0.6-0.46c0.12,0,0.32,0.01,0.58,0.03c1.09,0.1,2.32,0.15,3.69,0.15c1.42,0,2.46-0.04,3.13-0.12
		c0.5-0.07,0.91-0.1,1.25-0.1c0.4,0,0.6,0.15,0.6,0.44c0,0.27-0.2,0.44-0.6,0.52c-0.64,0.13-1.08,0.48-1.33,1.03
		c-0.24,0.55-0.37,1.49-0.37,2.8c0,0.41,0.02,0.77,0.05,1.09c0.04,0.55,0.07,0.94,0.07,1.16c0,0.34-0.07,0.59-0.21,0.75
		c-0.14,0.16-0.42,0.32-0.84,0.47c-0.25,0.09-1.13,0.46-2.64,1.11c-2.65,1.14-4.95,1.71-6.92,1.71c-2.99,0-5.43-1.01-7.33-3.04
		c-1.9-2.03-2.85-4.64-2.85-7.85c0-3.59,1.1-6.59,3.29-9.02C7.1,6.8,9.82,5.58,13.06,5.58z"/>
	<path d="M31.55,20.34V25c0,1.75,0.82,2.73,2.46,2.95c0.34,0.04,0.51,0.18,0.51,0.41c0,0.28-0.13,0.42-0.38,0.42
		c-0.12,0-0.28-0.02-0.47-0.05c-1.11-0.17-2.25-0.25-3.43-0.25c-0.62,0-1.18,0.02-1.68,0.07l-1.03,0.1
		c-0.19,0.02-0.38,0.03-0.58,0.03c-0.31,0-0.47-0.15-0.47-0.44c0-0.2,0.14-0.34,0.42-0.41c0.87-0.21,1.31-1.03,1.31-2.47l-0.02-0.7
		v-5.93c0-0.79-0.1-1.32-0.31-1.58c-0.2-0.26-0.64-0.42-1.32-0.47c-0.25-0.02-0.38-0.14-0.38-0.36c0-0.25,0.15-0.4,0.45-0.44
		c1.52-0.23,2.82-0.66,3.9-1.28l0.65-0.38c0.09-0.06,0.17-0.08,0.25-0.08c0.17,0,0.25,0.12,0.25,0.37c0,0.08-0.01,0.24-0.02,0.48
		l-0.05,0.93l-0.07,1.03l0.02,0.18c0.04,0.16,0.13,0.24,0.25,0.25c0.11,0.01,0.35-0.25,0.72-0.8c0.3-0.42,0.75-0.87,1.37-1.35
		c0.62-0.48,1.04-0.72,1.28-0.72c0.38,0,0.94,0.29,1.7,0.86c0.75,0.58,1.13,1.01,1.14,1.29c0,0.1-0.18,0.49-0.54,1.16
		c-0.46,0.85-0.86,1.28-1.21,1.28c-0.14,0-0.27-0.06-0.4-0.17l-0.46-0.42c-0.56-0.52-1.2-0.78-1.93-0.78
		C32.2,17.75,31.55,18.61,31.55,20.34z"/>
	<path d="M46.71,20.76c0.12-0.5,0.18-0.94,0.18-1.3c0-1.11-0.27-2.01-0.8-2.71c-0.53-0.7-1.22-1.05-2.05-1.05
		c-1.07,0-1.6,0.44-1.6,1.32c0,0.17,0.01,0.32,0.03,0.48l0.05,0.31c0,0.75-0.86,1.12-2.57,1.12c-0.44,0-0.66-0.19-0.63-0.58
		c0-0.08,0.03-0.2,0.08-0.37c0.03-0.12,0.07-0.27,0.1-0.43c0.14-0.71,0.48-1.25,1.01-1.63c1.17-0.84,2.59-1.26,4.25-1.26
		c1.92,0,3.35,0.44,4.3,1.33c0.73,0.67,1.1,1.85,1.1,3.52c0,0.84-0.03,1.9-0.1,3.17c-0.07,1.46-0.1,2.43-0.1,2.92
		c0,1.14,0.45,1.71,1.36,1.71c0.32,0,0.56-0.04,0.71-0.12c0.18-0.08,0.3-0.12,0.38-0.12c0.16,0,0.23,0.08,0.23,0.23
		c0,0.28-0.22,0.54-0.65,0.78l-0.65,0.33l-0.56,0.33c-0.4,0.21-0.84,0.32-1.31,0.32c-0.97,0-1.79-0.63-2.46-1.89
		c-2.06,1.32-3.77,1.98-5.13,1.98c-0.94,0-1.68-0.27-2.21-0.81c-0.53-0.54-0.8-1.3-0.8-2.26c0-1.75,0.76-3.03,2.29-3.83
		C42.12,21.76,43.96,21.27,46.71,20.76z M46.38,21.72c-0.95-0.07-1.86,0.27-2.72,1.01c-0.86,0.74-1.29,1.56-1.29,2.44
		c0,1.46,0.59,2.19,1.76,2.19c0.73,0,1.37-0.17,1.91-0.51c0.3-0.18,0.5-0.48,0.61-0.91s0.17-1.15,0.17-2.14l0.02-1.28v-0.35
		l-0.1-0.37C46.67,21.76,46.56,21.73,46.38,21.72z"/>
	<path d="M60.93,14.66c1.78,0,3,0.45,3.65,1.36c0.41,0.55,0.61,1.01,0.61,1.38c0,0.35-0.5,0.81-1.5,1.36l-0.7,0.4
		c-0.12,0.07-0.22,0.1-0.28,0.1c-0.29,0-0.45-0.21-0.48-0.63c-0.05-0.8-0.36-1.5-0.92-2.07c-0.56-0.58-1.19-0.87-1.89-0.87
		c-0.91,0-1.68,0.44-2.29,1.31c-0.62,0.88-0.92,1.96-0.92,3.26c0,2.02,0.46,3.67,1.37,4.97c0.91,1.29,2.07,1.94,3.49,1.94
		c1.23,0,2.49-0.45,3.78-1.36l0.2-0.1c0.18-0.01,0.27,0.08,0.27,0.28c0,0.39-0.42,0.89-1.25,1.48c-1.49,1.11-3.07,1.66-4.73,1.66
		c-1.84,0-3.36-0.62-4.57-1.87c-1.21-1.24-1.81-2.82-1.81-4.72c0-2.27,0.75-4.15,2.27-5.65C56.72,15.41,58.63,14.66,60.93,14.66z"/>
	<path d="M72.58,14.63c1.72,0,3.19,0.68,4.43,2.03c1.04,1.14,1.56,2.28,1.56,3.42c0,0.43-0.3,0.65-0.89,0.65l-0.76-0.03h-0.38
		l-1.01,0.02l-3.13,0.05l-1.64,0.02l-0.56-0.02c-0.32,0-0.52,0.04-0.61,0.12c-0.12,0.11-0.18,0.32-0.18,0.62
		c0,1.46,0.48,2.76,1.43,3.89c0.96,1.13,2.06,1.69,3.31,1.69c1.4,0,2.52-0.41,3.36-1.22l0.53-0.52c0.09-0.09,0.18-0.13,0.28-0.13
		c0.24,0,0.37,0.12,0.37,0.35c0,0.32-0.43,0.86-1.28,1.61c-1.5,1.33-3.12,1.99-4.85,1.99c-1.92,0-3.48-0.66-4.68-1.98
		c-1.21-1.32-1.81-3.02-1.81-5.1c0-2.01,0.64-3.76,1.93-5.23C69.28,15.37,70.81,14.63,72.58,14.63z M72.12,15.48
		c-0.75,0-1.4,0.37-1.96,1.1c-0.56,0.74-0.84,1.6-0.84,2.6c0,0.32,0.08,0.51,0.24,0.58c0.16,0.07,0.59,0.1,1.3,0.1
		c0.36,0,0.75-0.01,1.16-0.03c0.99-0.04,1.56-0.07,1.72-0.07c0.97,0,1.45-0.3,1.45-0.89c0-0.89-0.31-1.68-0.93-2.36
		C73.62,15.82,72.91,15.48,72.12,15.48z"/>
</g>
</svg>
