<?xml version="1.0" encoding="UTF-8"?><svg id="Layer_1" xmlns="http://www.w3.org/2000/svg" viewBox="0 0 80 40"><defs><style>.cls-1{font-family:Derivia-Regular, Derivia;font-size:22px;letter-spacing:-.01em;}.cls-2,.cls-3{stroke-width:0px;}.cls-3{fill:none;}</style></defs><text class="cls-1" transform="translate(-15.83 -3.33)"><tspan x="0" y="0">race</tspan></text><path class="cls-2" d="m48.41,24.51h-7.34v.04c0,1.41.6,2.72,1.55,3.47.46.35,1.01.52,1.65.52.75,0,1.44-.22,2.08-.6.6-.41,1.03-.96,1.3-1.65h.43c-.46.97-1.03,1.65-1.71,2.03-.76.32-1.42.49-1.96.49h-.28c-1.11,0-2.17-.49-2.88-1.3-.72-.81-1.16-1.94-1.16-3.04,0-1.49.74-2.93,2-3.74.62-.4,1.3-.6,2.05-.6,1.57,0,2.94.84,3.71,2.17.38.68.57,1.4.57,2.17v.05Zm-1.01-.41c0-.53-.17-1.05-.48-1.65-.68-1.27-1.82-2.07-2.77-2.07-1.42,0-2.36.94-2.78,2.21-.19.6-.29,1.02-.29,1.51h6.32Z"/><path class="cls-2" d="m49.36,27.61l.1.1.25.2c.22.17.44.3.68.41.3.11.49.17.76.17h.04c1.52,0,2.34-.63,2.34-1.77,0-.46-.18-.83-.51-1.16-.3-.29-.85-.54-1.67-.77-.83-.22-1.41-.5-1.75-.86-.35-.37-.57-.86-.57-1.47,0-.76.24-1.33.69-1.74.41-.39,1.07-.59,1.97-.59.81.11,1.36.43,1.7.88.1.14.18.28.21.4v.09s.02.11.02.11l-.04.18c-.02.07-.07.12-.14.17l-.03.03s-.1.06-.18.08l-.25-.03c-.12-.07-.22-.19-.26-.34l.03-.23c.02-.08.07-.13.13-.18.01,0,.03-.02.04-.04l.02-.03v-.04s-.17-.18-.17-.18c-.39-.39-.85-.58-1.37-.58-.58,0-1.07.23-1.42.57-.31.31-.47.71-.47,1.19.06.4.21.7.45.92.25.2.81.4,1.69.62s1.51.57,1.88,1.05c.39.49.6,1.06.6,1.78,0,.83-.27,1.39-.79,1.75s-1.16.55-2.05.55c-.62,0-1.25-.21-1.86-.63-.44-.29-.69-.56-.75-.82v-.08s-.02-.11-.02-.11l.03-.18c.02-.07.07-.13.13-.18l.03-.03s.11-.07.18-.09l.24.03c.15.04.24.18.28.32,0,.2-.02.3-.14.42,0,0-.03.03-.05.07l.02.05Z"/><path class="cls-2" d="m54.47,20.53v-.23h1.96v7.15l.03.35c.04.29.13.46.5.53l.44.04v.25h-2.87v-.25c.29,0,.53-.06.7-.17.1-.08.15-.21.17-.4l.04-.47v-5.7c0-.1-.01-.18-.02-.25l-.03-.17c-.07-.35-.2-.52-.53-.6l-.39-.1Zm.57-3.83l.8-.8.79.8-.79.82-.8-.82Z"/><path class="cls-2" d="m63.26,21.14c.17.17.34.38.5.63.31.51.47,1.06.47,1.63,0,1.17-.66,2.23-1.74,2.83-.54.29-1.12.45-1.75.45-.36,0-.71-.06-1.06-.17,0,.68.3.78,1.47,1.08.47.06.9.19,1.29.39,1.21.58,1.96,1.66,1.96,2.84s-.74,2.23-1.97,2.84c-.58.29-1.26.45-1.98.45-.43,0-.84-.09-1.21-.25-.71-.31-1.29-.79-1.73-1.43l-.1-.13-.15-.27-.1-.23-.1-.41.02-.07.04-.11c.07-.12.13-.19.3-.26l.04-.02c.11-.04.28.02.41.12.11.11.13.26.13.3,0,.02,0,.06-.02.11-.04.12-.12.27-.3.31-.03,0-.06,0-.08.04v.05c.04.13.09.27.15.39.27.55.74.99,1.44,1.32.43.16.86.24,1.28.24,1.52,0,2.39-.58,2.74-1.53.18-.49.27-.92.27-1.46,0-1.07-.69-2.1-1.63-2.64l-.31-.15c-.29-.1-.65-.22-1.09-.32-.7-.16-1.06-.5-1.06-1.04,0-.1.01-.19.04-.27-.81-.34-1.41-.98-1.74-1.78-.17-.4-.26-.81-.26-1.23,0-1.1.6-2.2,1.63-2.81.5-.3,1.07-.46,1.66-.46.64,0,1.22.14,1.76.44l.4.26c.1-.12.21-.25.34-.35l.2-.14c.09-.07.21-.12.37-.19h.18c.12.02.25.1.33.24l.02.03c.04.08.07.3,0,.43-.09.12-.19.18-.38.21-.14,0-.3-.08-.38-.22,0,0-.02-.03-.05-.05-.04.02-.07.04-.08.05l-.19.31Zm-4.93,2.34c0,1.02.47,1.98,1.23,2.51.37.28.77.41,1.2.41,1.28,0,2.03-.68,2.33-1.57.15-.45.23-.91.23-1.4,0-1.04-.56-1.99-1.39-2.56-.41-.28-.8-.42-1.17-.42-1.11,0-1.85.67-2.18,1.61-.16.48-.25.95-.25,1.42Z"/><path class="cls-2" d="m66.21,27.33v-5.45c0-.52-.09-.88-.24-1.06-.08-.09-.22-.15-.43-.2l-.49-.08v-.25h2.15v2.18c.57-1.72,1.52-2.39,2.44-2.39,1.13,0,2,.49,2.64,1.29s1.02,1.93,1.02,3.04v2.18s0,.43,0,.43v.43s.02.35.02.35c.04.29.13.46.5.53l.44.04v.25h-2.87v-.25c.29,0,.53-.06.7-.17.1-.08.15-.21.17-.4l.04-.47v-3.23c.01-1.17-.3-2.5-1.2-3.24-.45-.37-.95-.55-1.49-.55-.99.11-1.72.91-2.11,2.14-.2.62-.29,1.27-.29,1.94v2.89c0,.1.01.23.07.49.06.26.18.46.51.53l.13.04.26.02v.27h-1.95l-.92-.02v-.25c.29,0,.53-.06.7-.17.1-.08.15-.21.17-.4l.04-.47Z"/><path class="cls-2" d="m75.19,27.61l.09.1.25.2c.22.17.44.3.68.41.3.11.49.17.76.17h.04c1.52,0,2.34-.63,2.34-1.77,0-.46-.18-.83-.51-1.16-.29-.29-.85-.54-1.67-.77-.83-.22-1.41-.5-1.75-.86-.35-.37-.57-.86-.57-1.47,0-.76.24-1.33.69-1.74.41-.39,1.07-.59,1.97-.59.81.11,1.36.43,1.7.88.11.14.18.28.21.4v.09s.02.11.02.11l-.04.18c-.02.07-.07.12-.14.17l-.03.03s-.1.06-.18.08l-.25-.03c-.12-.07-.22-.19-.26-.34l.03-.23c.02-.08.07-.13.13-.18,0,0,.03-.02.04-.04l.02-.03v-.04s-.17-.18-.17-.18c-.39-.39-.85-.58-1.37-.58-.58,0-1.08.23-1.42.57-.31.31-.47.71-.47,1.19.06.4.21.7.45.92.25.2.81.4,1.69.62s1.51.57,1.88,1.05c.39.49.6,1.06.6,1.78,0,.83-.27,1.39-.79,1.75s-1.16.55-2.05.55c-.62,0-1.25-.21-1.86-.63-.44-.29-.69-.56-.75-.82v-.08s-.02-.11-.02-.11l.03-.18c.02-.07.07-.13.13-.18l.03-.03s.11-.07.18-.09l.24.03c.15.04.24.18.28.32,0,.2-.02.3-.14.42-.01,0-.03.03-.05.07l.02.05Z"/><path class="cls-2" d="m6.38,15.11c.17.17.34.38.5.63.31.51.47,1.06.47,1.63,0,1.17-.66,2.23-1.74,2.83-.54.29-1.12.45-1.75.45-.36,0-.71-.06-1.06-.17,0,.68.3.78,1.47,1.08.47.06.9.19,1.29.39,1.21.58,1.96,1.66,1.96,2.84s-.74,2.23-1.97,2.84c-.58.29-1.26.45-1.98.45-.43,0-.84-.09-1.21-.25-.71-.31-1.29-.79-1.73-1.43l-.1-.13-.15-.27-.1-.23-.1-.41.02-.07.04-.11c.07-.12.13-.19.3-.26l.04-.02c.11-.04.28.02.41.12.11.11.13.26.13.3,0,.02,0,.06-.02.11-.04.12-.12.27-.3.31-.03,0-.06,0-.08.04v.05c.04.13.09.27.15.39.27.55.74.99,1.44,1.32.43.16.86.24,1.28.24,1.52,0,2.39-.58,2.74-1.53.18-.49.27-.92.27-1.46,0-1.07-.69-2.1-1.63-2.64l-.31-.15c-.29-.1-.65-.22-1.09-.32-.7-.16-1.06-.5-1.06-1.04,0-.1.01-.19.04-.27-.81-.34-1.41-.98-1.74-1.78-.17-.4-.26-.81-.26-1.23,0-1.1.6-2.2,1.63-2.81.5-.3,1.07-.46,1.66-.46.64,0,1.22.14,1.76.44l.4.26c.1-.12.21-.25.34-.35l.2-.14c.09-.07.21-.12.37-.19h.18c.12.02.25.1.33.24l.02.03c.04.08.07.3,0,.43-.09.12-.19.18-.38.21-.14,0-.3-.08-.38-.22,0,0-.02-.03-.05-.05-.04.02-.07.04-.08.05l-.19.31Zm-4.93,2.34c0,1.02.47,1.98,1.23,2.51.37.28.77.41,1.2.41,1.28,0,2.03-.68,2.33-1.57.15-.45.23-.91.23-1.4,0-1.04-.56-1.99-1.39-2.56-.41-.28-.8-.42-1.17-.42-1.11,0-1.85.67-2.18,1.61-.16.48-.25.95-.25,1.42Z"/><path class="cls-2" d="m10.17,21.41l.03.35c.04.29.13.46.5.53l.44.04v.25h-2.87v-.25c.3,0,.53-.06.7-.17.1-.08.15-.21.17-.4l.04-.47.02-5.68c0-.1-.01-.18-.02-.25l-.03-.17c-.07-.35-.2-.52-.53-.6l-.39-.1v-.23h1.96v1.32c.29-.47.7-1,1.28-1.3l.23-.1c.11-.05.25-.08.41-.1h.07s.1.05.1.05l.15.1c.06.05.1.1.12.19v.04s.03.1.03.1l-.02.1c-.04.15-.13.27-.29.31s-.3.02-.43-.09c-.07-.05-.1-.11-.13-.2,0-.03-.02-.05-.03-.06l-.09.03c-.3.28-.53.6-.71.96-.43,1-.66,1.79-.72,2.35v3.42Z"/><path class="cls-2" d="m13.23,15.53v-.07s.19-.25.19-.25c.09-.2.29-.48.87-.79.28-.15.75-.26,1.42-.32,1.02,0,1.73.19,2.16.58l.19.21c.62.69.99,1.55.99,2.55v3.86l.03.47c.04.38.28.57.89.57v.25h-.41c-.59,0-.99-.1-1.2-.3-.13-.11-.22-.27-.27-.45-.19.24-.41.43-.66.57-.41.24-.94.36-1.61.36-1.08,0-1.6-.29-2.04-.79-.22-.25-.4-.53-.53-.87-.11-.33-.18-.65-.18-.99,0-.91.45-1.79,1.22-2.28.38-.25.9-.37,1.53-.37.68,0,1.21.12,1.61.36.24.14.46.32.64.53v-2.25c0-.87-.57-1.37-1.13-1.57-.29-.1-.63-.15-1.03-.15-.22,0-.44,0-.64.05-.4.1-.74.27-1.03.51l-.3.29-.02.05.05.07c.11.09.14.22.14.42-.03.14-.11.28-.28.32l-.24.03c-.07,0-.12-.04-.18-.09l-.03-.03c-.11-.08-.15-.2-.15-.34v-.13Zm.55,4.63c0,.8.33,1.6.9,2.03.29.22.68.32,1.18.32,1.33,0,1.79-.53,2.02-1.26.11-.35.17-.73.17-1.12,0-.84-.43-1.65-1.03-2.08-.3-.22-.7-.32-1.16-.32-1.21,0-1.67.53-1.9,1.29-.11.38-.18.75-.18,1.14Z"/><path class="cls-2" d="m26.64,21.92l-.25.18-.14.09c-.66.39-1.38.59-2.15.59-1.11,0-2.17-.49-2.88-1.29-.72-.81-1.16-1.94-1.16-3.04,0-1.49.74-2.93,2-3.74.62-.4,1.3-.6,2.05-.6.79,0,1.5.2,2.16.59.31.19.62.43.9.71l-.17.94-.15-.02c-.65-1.17-1.76-1.97-2.71-1.97-1.42,0-2.36.93-2.78,2.22-.21.64-.31,1.29-.31,1.95,0,1.41.6,2.72,1.56,3.46.48.37.99.56,1.53.56.82,0,1.47-.21,1.96-.62l.3-.29.02-.05s-.05-.06-.06-.07c-.11-.09-.14-.22-.14-.42.01-.11.11-.25.27-.32l.25-.03c.07,0,.12.04.18.09l.03.03c.11.08.15.2.15.34v.2c-.08.12-.16.23-.27.33l-.18.17Z"/><path class="cls-3" d="m34.61,16.44c-.68-1.27-1.82-2.07-2.77-2.07-1.42,0-2.36.94-2.78,2.21-.19.6-.29,1.02-.29,1.51h6.32c0-.53-.17-1.05-.48-1.65Z"/><path class="cls-3" d="m34.03,21.92c.57-.39.98-.91,1.26-1.55-.13-.02-.27-.03-.4-.03-1.64,0-2.56.89-2.96,2.13,0,.02,0,.04-.01.05.01,0,.02,0,.03,0,.75,0,1.44-.22,2.08-.6Z"/><path class="cls-3" d="m35.66,20.47c-.44.86-.97,1.48-1.61,1.84-.76.32-1.42.49-1.96.49h-.24c-.14.52-.23,1.06-.23,1.63,0,1.44.74,2.8,1.78,3.55.51.37,1.01.56,1.48.56,1.42,0,2.36-.94,2.78-2.22.21-.64.31-1.28.31-1.95,0-1.41-.58-2.73-1.55-3.47-.25-.19-.51-.33-.77-.42Z"/><path class="cls-2" d="m39.54,28.29c-.31-.09-.47-.28-.51-.54-.05-.26-.06-.38-.06-.49v-13.27h-1.96v.25l.43.05c.37.05.47.23.51.53l.03.34v6.47l-.17-.22c-.76-.81-1.76-1.3-2.89-1.3-.77,0-1.48.2-2.14.59-.69.42-1.25,1.02-1.62,1.72-.31-.09-.6-.22-.86-.42-.95-.75-1.55-2.06-1.55-3.47v-.04h7.34v-.05c0-.77-.19-1.49-.57-2.17-.77-1.33-2.14-2.17-3.71-2.17-.74,0-1.43.2-2.05.6-1.26.81-2,2.25-2,3.74,0,1.1.44,2.24,1.16,3.04.54.61,1.28,1.04,2.09,1.21-.25.55-.38,1.14-.38,1.75,0,.77.19,1.49.58,2.16.76,1.33,2.13,2.18,3.7,2.18,1.48,0,2.49-.8,3.06-1.52v1.34h1.96v-.23l-.4-.09Zm-10.48-11.72c.42-1.27,1.36-2.21,2.78-2.21.95,0,2.09.81,2.77,2.07.3.6.48,1.11.48,1.65h-6.32c0-.49.1-.91.29-1.51Zm2.87,5.9c.4-1.24,1.32-2.13,2.96-2.13.14,0,.27.01.4.03-.28.64-.69,1.16-1.26,1.55-.65.38-1.33.6-2.08.6-.01,0-.02,0-.03,0,0-.02,0-.04.01-.05Zm5.74,3.84c-.42,1.27-1.36,2.22-2.78,2.22-.48,0-.97-.19-1.48-.56-1.04-.75-1.78-2.11-1.78-3.55,0-.56.09-1.11.23-1.64h.24c.54,0,1.2-.15,1.96-.48.64-.35,1.17-.97,1.61-1.84.26.09.52.23.77.42.97.74,1.55,2.06,1.55,3.47,0,.67-.11,1.31-.31,1.95Z"/></svg>