<?xml version="1.0" encoding="utf-8"?>
<!-- Generator: Adobe Illustrator 27.9.0, SVG Export Plug-In . SVG Version: 6.00 Build 0)  -->
<svg version="1.1" id="Layer_1" xmlns="http://www.w3.org/2000/svg" xmlns:xlink="http://www.w3.org/1999/xlink" x="0px" y="0px"
	 viewBox="0 0 80 40" style="enable-background:new 0 0 80 40;" xml:space="preserve">
<style type="text/css">
	.st0{fill:#231F20;}
	.st1{fill:#FFFFFF;}
</style>
<g>
	<path d="M16.42,9.85H10.4v4.83h1.51c0.62,0,0.93,0.2,0.93,0.62c0,0.55-0.47,0.83-1.41,0.83c-1.48,0-2.66-0.44-3.52-1.32
		c-0.88-0.88-1.31-2.07-1.31-3.57c0-1.47,0.48-2.67,1.41-3.59s2.15-1.38,3.63-1.38c0.82,0,1.72,0.23,2.72,0.7V0.64
		C13.08,0.21,11.91,0,10.87,0C7.8,0,5.25,1.05,3.2,3.14c-2.05,2.1-3.07,4.72-3.07,7.87c0,3.14,1.01,5.8,3.02,7.99
		c0.56,0.61,1.14,1.13,1.77,1.56v-2.13h8.31c1.45,0,2.78,0.13,3.98,0.4c0.78-1.13,1.15-2.43,1.15-3.89
		C18.36,13.16,17.72,11.47,16.42,9.85z"/>
	<path d="M26.46,6.19v4.86c-0.32-0.18-0.6-0.27-0.86-0.27c-0.83,0-1.24,0.63-1.24,1.9v5.75h-4.55v-6.62c0-1.75,0.48-3.15,1.43-4.19
		c0.96-1.04,2.23-1.56,3.83-1.56C25.43,6.06,25.89,6.1,26.46,6.19z"/>
	<path d="M35.3,13.88v4.7c-0.37,0.06-0.71,0.1-1.02,0.1c-1.82,0-3.34-0.6-4.56-1.8c-1.22-1.2-1.82-2.7-1.82-4.51
		c0-1.76,0.61-3.25,1.84-4.47c1.23-1.22,2.72-1.83,4.48-1.83c1.96,0,3.51,0.57,4.64,1.72c1.13,1.15,1.7,2.71,1.7,4.7v5.94H36v-5.61
		c0-0.64-0.16-1.15-0.47-1.53c-0.31-0.38-0.73-0.57-1.26-0.57c-0.48,0-0.89,0.17-1.24,0.52c-0.35,0.35-0.52,0.76-0.52,1.24
		c0,0.5,0.16,0.92,0.47,1.24c0.32,0.32,0.72,0.49,1.2,0.49C34.59,14.2,34.96,14.09,35.3,13.88z"/>
	<path d="M49.64,12.85l4.51-0.17c-0.13,1.75-0.78,3.19-1.96,4.31c-1.18,1.13-2.61,1.69-4.29,1.69c-1.78,0-3.29-0.62-4.51-1.86
		c-1.23-1.24-1.84-2.76-1.84-4.56c0-1.71,0.62-3.17,1.86-4.39c1.24-1.22,2.73-1.82,4.46-1.82c1.51,0,2.85,0.48,4.01,1.43
		c1.16,0.96,1.88,2.18,2.16,3.66l-4.61,0.17c-0.4-0.52-0.9-0.78-1.51-0.78c-0.52,0-0.94,0.17-1.28,0.51
		c-0.33,0.34-0.5,0.77-0.5,1.29c0,0.53,0.18,0.97,0.53,1.32c0.35,0.36,0.79,0.53,1.32,0.53C48.77,14.2,49.31,13.75,49.64,12.85z"/>
	<path d="M68.03,13.11h-6.89c-0.1-0.35-0.16-0.67-0.16-0.96c0-0.41,0.07-0.8,0.22-1.19h2.31c-0.16-0.9-0.67-1.35-1.52-1.35
		c-0.57,0-1.03,0.24-1.39,0.72c-0.36,0.48-0.53,1.1-0.53,1.85c0,0.79,0.17,1.42,0.52,1.91c0.34,0.49,0.8,0.73,1.36,0.73
		c0.45,0,0.89-0.23,1.31-0.68l2.59,3.11c-1.21,0.95-2.55,1.42-4.02,1.42c-1.8,0-3.31-0.6-4.53-1.81c-1.22-1.21-1.83-2.7-1.83-4.48
		c0-1.77,0.62-3.27,1.85-4.5c1.24-1.22,2.75-1.83,4.55-1.83c1.76,0,3.23,0.6,4.43,1.79c1.19,1.2,1.79,2.67,1.79,4.42
		C68.08,12.43,68.07,12.72,68.03,13.11z"/>
	<path d="M21.79,20.91c-1.24-1-2.77-1.69-4.58-2.08c-0.3,0.48-0.68,0.92-1.12,1.33c-1.51,1.41-3.38,2.12-5.6,2.12
		c-2.09,0-3.94-0.58-5.56-1.72v19.31h6.37V24.6h2.16c3.65,0,5.47,1.45,5.47,4.38c0,3.11-1.85,4.67-5.57,4.67h-1.02v6.29
		c0.88,0.05,1.51,0.07,1.9,0.07c3.29,0,5.99-1.03,8.08-3.09c2.1-2.05,3.15-4.7,3.15-7.94C25.46,25.58,24.24,22.89,21.79,20.91z"/>
	<path class="st1" d="M17.21,18.83c-0.3,0.48-0.68,0.92-1.12,1.33c-1.51,1.41-3.38,2.12-5.6,2.12c-2.09,0-3.94-0.58-5.56-1.72v-2.13
		h8.31C14.68,18.43,16.01,18.56,17.21,18.83z"/>
	<path d="M39.07,32.24h-7.02c-0.11-0.35-0.16-0.68-0.16-0.98c0-0.41,0.08-0.82,0.22-1.21h2.35c-0.16-0.92-0.68-1.38-1.55-1.38
		c-0.58,0-1.05,0.25-1.41,0.74c-0.36,0.49-0.55,1.12-0.55,1.89c0,0.8,0.18,1.45,0.53,1.95c0.35,0.5,0.81,0.74,1.38,0.74
		c0.46,0,0.91-0.23,1.34-0.69l2.64,3.17c-1.23,0.97-2.6,1.45-4.1,1.45c-1.83,0-3.37-0.61-4.62-1.85c-1.25-1.23-1.87-2.75-1.87-4.57
		c0-1.81,0.63-3.34,1.89-4.58c1.26-1.25,2.81-1.87,4.64-1.87c1.79,0,3.3,0.61,4.52,1.83c1.22,1.22,1.83,2.72,1.83,4.5
		C39.12,31.56,39.1,31.84,39.07,32.24z"/>
	<path d="M48.04,25.49v4.88c-0.65,0-1.1,0.12-1.34,0.36c-0.24,0.24-0.4,0.73-0.46,1.44c-0.22,2.39-1.14,4.07-2.78,5.05
		c-0.87,0.51-2.1,0.77-3.69,0.77h-0.64V33.1h0.21c0.74,0,1.27-0.16,1.59-0.46c0.32-0.31,0.5-0.85,0.55-1.63
		c0.07-1.26,0.18-2.15,0.35-2.66c0.17-0.51,0.51-1.02,1.03-1.52c0.91-0.88,2.17-1.33,3.78-1.33H48.04z"/>
	<path d="M54.96,25.32v12.35h-4.63V25.32H54.96z M52.66,19.8c0.63,0,1.17,0.22,1.63,0.66c0.46,0.44,0.69,0.96,0.69,1.57
		c0,0.64-0.22,1.17-0.65,1.59c-0.43,0.41-0.99,0.62-1.67,0.62c-0.68,0-1.23-0.21-1.67-0.62c-0.43-0.41-0.65-0.94-0.65-1.59
		c0-0.6,0.23-1.12,0.69-1.57C51.49,20.02,52.03,19.8,52.66,19.8z"/>
	<path d="M62.57,30.98v3.47c-0.55,0.2-1.07,0.3-1.57,0.3c-1.22,0-2.26-0.46-3.1-1.39c-0.85-0.93-1.27-2.06-1.27-3.39
		c0-1.44,0.51-2.66,1.53-3.66c1.02-0.99,2.27-1.49,3.76-1.49c0.79,0,1.55,0.16,2.27,0.48c0.72,0.32,1.29,0.74,1.7,1.28
		c0.69,0.88,1.03,2.17,1.03,3.85v3.32c0,1.8-0.51,3.27-1.53,4.39c-1.02,1.12-2.35,1.69-3.99,1.69c-0.5,0-1.13-0.13-1.89-0.38v-3.44
		c0.49,0.27,0.99,0.41,1.5,0.41c0.68,0,1.21-0.22,1.58-0.67c0.37-0.45,0.56-1.09,0.56-1.93v-3.8c0-1.06-0.43-1.59-1.29-1.59
		c-0.36,0-0.68,0.14-0.96,0.42c-0.27,0.28-0.41,0.6-0.41,0.97c0,0.38,0.13,0.71,0.39,0.96s0.58,0.38,0.97,0.38
		C62.09,31.17,62.33,31.1,62.57,30.98z"/>
	<path d="M80.01,36.85h-4.63v-6.97c0-0.71-0.29-1.07-0.88-1.07c-0.58,0-0.87,0.35-0.87,1.07v6.97H69v-6.89
		c0-1.61,0.53-2.97,1.6-4.07c1.07-1.1,2.37-1.65,3.91-1.65c1.77,0,3.18,0.64,4.25,1.92c0.83,1,1.25,2.39,1.25,4.17V36.85z"/>
</g>
</svg>
