<?xml version="1.0" encoding="utf-8"?>
<!-- Generator: Adobe Illustrator 28.0.0, SVG Export Plug-In . SVG Version: 6.00 Build 0)  -->
<svg version="1.1" id="Layer_1" xmlns="http://www.w3.org/2000/svg" xmlns:xlink="http://www.w3.org/1999/xlink" x="0px" y="0px"
	 viewBox="0 0 78.44 40" style="enable-background:new 0 0 78.44 40;" xml:space="preserve">
<style type="text/css">
	.st0{fill:none;stroke:#EA2F64;stroke-miterlimit:10;}
	.st1{fill:none;stroke:#231F20;stroke-linejoin:round;stroke-miterlimit:10;}
	.st2{fill:none;stroke:#231F20;stroke-linecap:square;stroke-linejoin:round;stroke-miterlimit:10;}
	.st3{fill:#231F20;}
	.st4{fill:#E24975;}
</style>
<path class="st3" d="M78.45,38.43l-4.38-8.3c-0.09-0.17-0.26-0.28-0.46-0.28c-0.19,0-0.37,0.12-0.45,0.3
	c-0.02,0.04-1.6,3.57-4.99,4.65c-1.75,0.55-3.69,0.37-5.79-0.54c2.19-0.26,4-1.29,5.3-3.04c2.38-3.22,2.53-8.32,1.3-11.39
	c-1.21-3.01-1.28-7.62,0.91-10.59c1.46-1.98,3.66-2.85,6.52-2.61c0.24,0.01,0.45-0.12,0.52-0.34c0.07-0.22-0.02-0.46-0.22-0.58
	c-3.03-1.82-5.84-2.34-8.35-1.54c-2.73,0.87-4.38,3.06-5.12,4.3L59.17,0.3c-0.08-0.17-0.26-0.28-0.45-0.28s-0.36,0.11-0.45,0.28
	l-4.14,8.28c-0.75-1.24-2.39-3.43-5.12-4.31c-2.51-0.8-5.32-0.28-8.35,1.54c-0.2,0.12-0.29,0.36-0.22,0.58
	c0.07,0.22,0.28,0.35,0.52,0.34c2.79-0.23,4.96,0.66,6.44,2.66c2.17,2.94,2.3,7.61,1.18,10.43c-1.31,3.27-1.38,8.29,1.04,11.55
	c0.94,1.28,2.6,2.7,5.36,3c-2.09,0.91-4.02,1.09-5.77,0.53c-3.39-1.08-4.98-4.61-4.99-4.65c-0.08-0.18-0.25-0.29-0.45-0.3
	c-0.2-0.02-0.37,0.1-0.46,0.28l-4.07,8.13l-4.13-8.25c-0.09-0.17-0.28-0.28-0.46-0.28c-0.19,0-0.37,0.12-0.45,0.3
	c-0.02,0.04-1.6,3.57-4.99,4.65c-1.75,0.55-3.69,0.37-5.79-0.54c2.19-0.26,4-1.29,5.3-3.04c2.38-3.22,2.53-8.32,1.3-11.39
	c-1.21-3.01-1.28-7.62,0.91-10.59c1.46-1.98,3.66-2.86,6.52-2.61c0.23,0.01,0.45-0.12,0.52-0.34c0.07-0.22-0.02-0.46-0.22-0.58
	c-3.03-1.82-5.84-2.34-8.35-1.54c-2.73,0.87-4.38,3.06-5.12,4.3L20.19,0.3c-0.08-0.17-0.26-0.28-0.45-0.28S19.38,0.13,19.3,0.3
	l-4.14,8.28c-0.75-1.24-2.39-3.43-5.12-4.3c-2.51-0.8-5.33-0.28-8.35,1.54C1.48,5.93,1.39,6.17,1.46,6.4
	c0.07,0.22,0.28,0.35,0.52,0.34C4.77,6.51,6.94,7.4,8.42,9.4c2.17,2.94,2.3,7.61,1.17,10.43c-1.31,3.27-1.38,8.29,1.04,11.55
	c0.94,1.28,2.6,2.7,5.36,3c-2.09,0.91-4.02,1.09-5.77,0.53c-3.39-1.08-4.98-4.61-4.99-4.65c-0.08-0.18-0.25-0.29-0.45-0.3
	c-0.19-0.02-0.37,0.1-0.46,0.28L0,38.49L0,40c0.01,0,0.03,0,0.04,0c0.19,0,0.35-0.11,0.44-0.27l0,0l4.31-8.17
	c0.75,1.24,2.39,3.43,5.12,4.31c2.52,0.8,5.33,0.28,8.35-1.54c0.2-0.12,0.29-0.36,0.22-0.58c-0.07-0.22-0.28-0.36-0.52-0.34
	c-2.86,0.24-5.06-0.64-6.52-2.61c-2.2-2.97-2.12-7.57-0.91-10.59c1.23-3.07,1.08-8.17-1.3-11.39c-1.3-1.75-3.1-2.78-5.3-3.04
	c2.09-0.91,4.03-1.1,5.78-0.55c3.38,1.06,4.94,4.51,5.01,4.65c0.08,0.18,0.25,0.29,0.45,0.3c0.2,0,0.37-0.1,0.46-0.28l4.13-8.25
	l4.07,8.13c0.09,0.17,0.27,0.26,0.46,0.28c0.19,0,0.37-0.12,0.45-0.3c0.02-0.04,1.6-3.57,4.99-4.65c1.75-0.55,3.68-0.37,5.77,0.53
	c-2.76,0.3-4.41,1.73-5.36,3c-2.41,3.26-2.35,8.28-1.04,11.55c1.13,2.82,1,7.49-1.17,10.43c-1.48,2-3.65,2.89-6.44,2.66
	c-0.24-0.01-0.45,0.12-0.52,0.34c-0.07,0.22,0.02,0.46,0.22,0.58c3.02,1.82,5.82,2.34,8.33,1.55c2.73-0.86,4.4-3.07,5.15-4.32
	l4.14,8.29c0.17,0.34,0.72,0.34,0.89,0l4.08-8.16c0.75,1.24,2.39,3.43,5.12,4.31c2.52,0.8,5.33,0.28,8.35-1.54
	c0.2-0.12,0.29-0.36,0.22-0.58c-0.07-0.22-0.28-0.36-0.52-0.34c-2.87,0.24-5.06-0.64-6.52-2.61c-2.2-2.97-2.12-7.57-0.91-10.59
	c1.23-3.07,1.08-8.17-1.3-11.39c-1.3-1.75-3.1-2.78-5.3-3.04c2.09-0.91,4.02-1.1,5.77-0.55c3.37,1.06,4.95,4.51,5.02,4.66
	c0.04,0.09,0.1,0.16,0.18,0.21c0.12,0.08,0.27,0.1,0.41,0.07c0.14-0.04,0.25-0.13,0.32-0.26l4.13-8.25l4.07,8.13
	c0.09,0.17,0.26,0.26,0.46,0.28c0.19,0,0.37-0.12,0.45-0.3c0.02-0.04,1.6-3.57,4.99-4.65c1.75-0.55,3.68-0.37,5.77,0.53
	c-2.76,0.3-4.41,1.73-5.36,3c-2.41,3.26-2.35,8.28-1.04,11.55c1.13,2.82,1,7.49-1.17,10.43c-1.48,2-3.65,2.89-6.44,2.66
	c-0.24-0.01-0.45,0.12-0.52,0.34c-0.07,0.22,0.02,0.46,0.22,0.58c3.02,1.82,5.82,2.34,8.33,1.55c2.73-0.86,4.4-3.07,5.15-4.32
	l4.39,8.3l0.01,0C78.1,39.89,78.26,40,78.46,40L78.45,38.43z"/>
</svg>
